<?xml version="1.0" encoding="UTF-8" standalone="no"?>
<!-- Generator: visioncortex VTracer 0.6.4 -->

<svg
   version="1.1"
   width="1024"
   height="1024"
   id="svg45"
   sodipodi:docname="TARDISSight-logo.svg"
   inkscape:version="1.4 (e7c3feb100, 2024-10-09)"
   inkscape:export-filename="TARDISSight-logo.png"
   inkscape:export-xdpi="96"
   inkscape:export-ydpi="96"
   xmlns:inkscape="http://www.inkscape.org/namespaces/inkscape"
   xmlns:sodipodi="http://sodipodi.sourceforge.net/DTD/sodipodi-0.dtd"
   xmlns="http://www.w3.org/2000/svg"
   xmlns:svg="http://www.w3.org/2000/svg">
  <defs
     id="defs45" />
  <sodipodi:namedview
     id="namedview45"
     pagecolor="#ffffff"
     bordercolor="#000000"
     borderopacity="0.25"
     inkscape:showpageshadow="2"
     inkscape:pageopacity="0.0"
     inkscape:pagecheckerboard="0"
     inkscape:deskcolor="#d1d1d1"
     showguides="false"
     inkscape:zoom="0.55795144"
     inkscape:cx="822.65223"
     inkscape:cy="505.42032"
     inkscape:window-width="1800"
     inkscape:window-height="1054"
     inkscape:window-x="0"
     inkscape:window-y="0"
     inkscape:window-maximized="1"
     inkscape:current-layer="svg45" />
  <path
     d="M 0,0 H 1024 V 1024 H 0 Z"
     fill="#12416D"
     id="path1"
     style="fill:#12416d;fill-opacity:1"
     sodipodi:nodetypes="ccccc" />
  <path
     d="M0 0 C1.248 -0.003 1.248 -0.003 2.522 -0.006 C5.318 -0.012 8.113 -0.01 10.908 -0.009 C12.93 -0.012 14.952 -0.015 16.974 -0.018 C22.535 -0.026 28.097 -0.028 33.658 -0.029 C39.654 -0.03 45.65 -0.038 51.646 -0.045 C65.444 -0.059 79.241 -0.065 93.039 -0.069 C99.859 -0.072 106.679 -0.075 113.499 -0.079 C136.851 -0.092 160.202 -0.103 183.553 -0.106 C185.019 -0.106 186.485 -0.107 187.95 -0.107 C189.419 -0.107 190.888 -0.107 192.357 -0.107 C195.304 -0.108 198.251 -0.108 201.198 -0.109 C201.929 -0.109 202.66 -0.109 203.413 -0.109 C227.103 -0.113 250.793 -0.129 274.484 -0.152 C299.538 -0.177 324.593 -0.19 349.647 -0.192 C352.398 -0.192 355.15 -0.192 357.901 -0.192 C358.917 -0.192 358.917 -0.192 359.954 -0.192 C370.847 -0.193 381.74 -0.204 392.633 -0.219 C403.586 -0.233 414.539 -0.236 425.492 -0.229 C431.423 -0.225 437.355 -0.226 443.286 -0.24 C448.719 -0.252 454.152 -0.251 459.586 -0.239 C461.548 -0.237 463.51 -0.24 465.473 -0.249 C478.695 -0.304 490.621 0.504 502.627 6.631 C503.299 6.973 503.97 7.315 504.662 7.667 C515.749 13.606 523.609 22.093 529.627 33.131 C530.024 33.818 530.421 34.506 530.83 35.213 C537.16 46.81 537.059 58.671 537.015 71.507 C537.019 73.478 537.024 75.449 537.031 77.42 C537.046 82.818 537.041 88.216 537.034 93.614 C537.029 99.444 537.042 105.273 537.052 111.102 C537.069 122.514 537.07 133.927 537.065 145.339 C537.061 154.617 537.062 163.895 537.067 173.173 C537.068 174.507 537.069 175.842 537.07 177.176 C537.071 179.187 537.072 181.198 537.073 183.209 C537.084 201.9 537.089 220.59 537.081 239.28 C537.08 240.336 537.08 240.336 537.08 241.414 C537.077 247.131 537.075 252.849 537.072 258.566 C537.062 280.863 537.07 303.159 537.094 325.456 C537.12 350.525 537.133 375.594 537.125 400.664 C537.125 403.339 537.124 406.014 537.123 408.688 C537.123 410.005 537.123 411.321 537.122 412.676 C537.121 421.939 537.129 431.201 537.142 440.464 C537.156 451.758 537.157 463.052 537.14 474.346 C537.131 480.106 537.129 485.865 537.144 491.625 C537.158 496.904 537.153 502.182 537.134 507.46 C537.13 509.364 537.133 511.267 537.144 513.171 C537.249 533.883 532.416 550.808 517.627 566.131 C503.292 578.434 487.629 583.307 469.034 583.263 C467.804 583.266 467.804 583.266 466.55 583.269 C463.816 583.275 461.081 583.273 458.347 583.272 C456.362 583.274 454.377 583.277 452.391 583.281 C446.945 583.289 441.499 583.291 436.053 583.291 C430.175 583.293 424.298 583.301 418.42 583.308 C404.903 583.322 391.387 583.328 377.87 583.332 C371.186 583.335 364.502 583.338 357.817 583.342 C334.922 583.355 312.026 583.366 289.13 583.369 C287.694 583.369 286.258 583.369 284.822 583.37 C283.382 583.37 281.943 583.37 280.503 583.37 C277.615 583.371 274.727 583.371 271.84 583.372 C271.123 583.372 270.407 583.372 269.67 583.372 C246.457 583.376 223.244 583.392 200.031 583.415 C175.47 583.439 150.908 583.453 126.346 583.454 C123.648 583.455 120.95 583.455 118.252 583.455 C117.255 583.455 117.255 583.455 116.238 583.455 C106.226 583.456 96.214 583.466 86.202 583.479 C74.808 583.495 63.414 583.5 52.02 583.491 C46.21 583.488 40.399 583.488 34.589 583.503 C29.263 583.515 23.937 583.514 18.611 583.502 C16.691 583.5 14.771 583.503 12.851 583.512 C-10.502 583.611 -29.361 579.311 -47.06 563.006 C-60.157 549.323 -64.55 531.376 -64.504 512.885 C-64.507 511.711 -64.507 511.711 -64.511 510.514 C-64.516 507.907 -64.515 505.3 -64.513 502.693 C-64.516 500.8 -64.519 498.906 -64.522 497.012 C-64.53 491.819 -64.532 486.625 -64.533 481.432 C-64.535 475.826 -64.542 470.221 -64.549 464.615 C-64.563 452.363 -64.569 440.111 -64.573 427.858 C-64.576 420.205 -64.58 412.551 -64.585 404.897 C-64.597 383.695 -64.607 362.493 -64.61 341.292 C-64.611 339.922 -64.611 338.552 -64.611 337.182 C-64.611 335.809 -64.612 334.435 -64.612 333.062 C-64.612 330.307 -64.613 327.553 -64.613 324.798 C-64.613 324.115 -64.613 323.432 -64.613 322.729 C-64.617 300.59 -64.633 278.451 -64.656 256.312 C-64.681 232.883 -64.695 209.455 -64.696 186.026 C-64.697 173.263 -64.702 160.501 -64.721 147.738 C-64.736 136.87 -64.741 126.002 -64.733 115.134 C-64.729 109.593 -64.73 104.051 -64.744 98.51 C-64.757 93.429 -64.755 88.348 -64.743 83.267 C-64.741 81.437 -64.744 79.607 -64.753 77.778 C-64.857 54.556 -60.821 34.578 -44.06 17.381 C-31.935 5.684 -16.807 -0.039 0 0 Z "
     fill="#013362"
     transform="translate(275.372896194458,128.86857223510742)"
     id="path2"
     style="fill:#000000;fill-opacity:0" />
  <path
     d="M0 0 C1.454 0.245 1.454 0.245 2.937 0.495 C7.304 1.114 11.6 1.119 16.004 1.082 C16.888 1.079 17.772 1.076 18.683 1.073 C21.632 1.06 24.582 1.041 27.531 1.022 C29.65 1.012 31.769 1.002 33.889 0.993 C39.634 0.966 45.379 0.933 51.125 0.899 C57.132 0.865 63.139 0.837 69.146 0.807 C80.518 0.751 91.89 0.69 103.261 0.627 C116.209 0.555 129.157 0.489 142.105 0.424 C168.737 0.289 195.368 0.147 222 0 C222 3.63 222 7.26 222 11 C228.93 11.495 228.93 11.495 236 12 C236 23.88 236 35.76 236 48 C233.03 48 230.06 48 227 48 C227 165.81 227 283.62 227 405 C229.97 405 232.94 405 236 405 C236 413.25 236 421.5 236 430 C153.5 430 71 430 -14 430 C-14 421.75 -14 413.5 -14 405 C-11.36 405 -8.72 405 -6 405 C-6 287.19 -6 169.38 -6 48 C-8.64 48 -11.28 48 -14 48 C-14 36.12 -14 24.24 -14 12 C-9.38 11.67 -4.76 11.34 0 11 C0 7.37 0 3.74 0 0 Z "
     fill="#EBEDEF"
     transform="translate(288,239)"
     id="path3" />
  <path
     d="M0 0 C1.454 0.245 1.454 0.245 2.937 0.495 C7.304 1.114 11.6 1.119 16.004 1.082 C16.888 1.079 17.772 1.076 18.683 1.073 C21.632 1.06 24.582 1.041 27.531 1.022 C29.65 1.012 31.769 1.002 33.889 0.993 C39.634 0.966 45.379 0.933 51.125 0.899 C57.132 0.865 63.139 0.837 69.146 0.807 C80.518 0.751 91.89 0.69 103.261 0.627 C116.209 0.555 129.157 0.489 142.105 0.424 C168.737 0.289 195.368 0.147 222 0 C222 3.63 222 7.26 222 11 C228.93 11.495 228.93 11.495 236 12 C236 23.88 236 35.76 236 48 C233.03 48 230.06 48 227 48 C227 165.81 227 283.62 227 405 C229.97 405 232.94 405 236 405 C236 413.25 236 421.5 236 430 C153.5 430 71 430 -14 430 C-14 421.75 -14 413.5 -14 405 C-11.36 405 -8.72 405 -6 405 C-6 287.19 -6 169.38 -6 48 C-8.64 48 -11.28 48 -14 48 C-14 36.12 -14 24.24 -14 12 C-9.38 11.67 -4.76 11.34 0 11 C0 7.37 0 3.74 0 0 Z M19 51 C19 167.82 19 284.64 19 405 C79.39 405.33 139.78 405.66 202 406 C202.33 405.67 202.66 405.34 203 405 C203 288.18 203 171.36 203 51 C142.28 51 81.56 51 19 51 Z "
     fill="#E9EAED"
     transform="translate(288,239)"
     id="path4" />
  <path
     d="M0 0 C25.41 0 50.82 0 77 0 C77 110.22 77 220.44 77 334 C51.59 334 26.18 334 0 334 C0 223.78 0 113.56 0 0 Z "
     fill="#ECEEEF"
     transform="translate(316,301)"
     id="path5" />
  <path
     d="M0 0 C60.72 0 121.44 0 184 0 C184 116.82 184 233.64 184 354 C181.051 355.474 178.081 355.114 174.85 355.082 C173.735 355.077 173.735 355.077 172.598 355.073 C170.087 355.06 167.577 355.041 165.066 355.022 C163.243 355.011 161.421 355.002 159.598 354.992 C154.705 354.965 149.811 354.933 144.918 354.899 C140.331 354.868 135.744 354.842 131.156 354.816 C117.729 354.737 104.302 354.649 90.875 354.562 C60.886 354.377 30.897 354.191 0 354 C0 237.18 0 120.36 0 0 Z M9 11 C9 121.22 9 231.44 9 345 C34.41 345 59.82 345 86 345 C86 234.78 86 124.56 86 11 C60.59 11 35.18 11 9 11 Z M97 11 C97 121.22 97 231.44 97 345 C122.41 345 147.82 345 174 345 C174 234.78 174 124.56 174 11 C148.59 11 123.18 11 97 11 Z "
     fill="#09315C"
     transform="translate(307,290)"
     id="path6"
     style="fill:#12416d;fill-opacity:1" />
  <path
     d="m 0,0 c 0.892,0.018 1.784,0.036 2.703,0.055 7.2326942,0.24815857 21.900316,17.589403 23.172,19.257 0.478,0.621 0.956,1.242 1.448,1.882 11.401,14.983 24.796,33.381 25.427,52.931 -3.298,11.05 -16.151,15.978 -25.562,21.313 -1.747,0.997 -3.492,1.996 -5.238,2.995 -1.705,0.976 -3.412,1.95 -5.118,2.925 -3.88,2.224 -7.735,4.488 -11.582,6.767 -7.032,4.158 -14.107,8.238 -21.188,12.313 -11.824,6.805 -23.585,13.715 -35.312,20.687 -14.871,-2.678 -28.644,-18.079 -37,-30 -6.027,-9.82 -10.103,-20.441 -8,-32 0.641,-0.52 0.641,-0.52 1.294,-1.051 4.227,-3.431 8.452,-6.865 12.676,-10.3 1.682,-1.366 3.366,-2.731 5.05,-4.094 6.217,-5.052 12.316,-10.231 18.382,-15.461 2.336,-2.013 4.682,-4.013 7.039,-6 13.055,-11.027 25.433,-22.727 37.332,-34.991 0.94,-0.958 0.94,-0.958 1.899,-1.935 0.547,-0.564 1.095,-1.129 1.659,-1.71 C -7.413,0.521 -4.594,-0.121 0,0 Z"
     fill="#ececed"
     transform="translate(735.25,249.875)"
     id="path7"
     sodipodi:nodetypes="cccccccccccccccccccccc" />
  <path
     d="M 0,0 C 0.125,4.107 0.215,8.214 0.275,12.323 0.3,13.717 0.334,15.11 0.377,16.504 0.639,25.104 0.395,31.916 -5,39 c 0.583,6.086 3.035,11.265 5.438,16.812 0.482,1.127 0.964,2.254 1.461,3.415 5.135,11.969 10.4,23.882 15.646,35.802 16.124,36.644 31.992,73.4 47.712,110.219 2.515,5.889 5.042,11.773 7.578,17.653 1.617,3.751 3.227,7.504 4.837,11.258 0.753,1.752 1.508,3.503 2.266,5.252 1.034,2.388 2.059,4.779 3.082,7.171 0.305,0.699 0.61,1.397 0.924,2.117 C 85.387,252.098 86,254.236 86,258 H 70 c -4.829,-9.331 -9.021,-18.838 -13.115,-28.508 -1.978,-4.669 -3.968,-9.333 -5.959,-13.996 -0.409,-0.958 -0.818,-1.916 -1.239,-2.903 C 45.509,202.822 41.228,193.097 36.938,183.375 29.1,165.602 21.472,147.744 13.905,129.854 10.335,121.419 6.724,113.002 3.104,104.589 -0.982,95.08 -4.983,85.54 -9,76 l -1,183 -1,1 h -13 c -2.054061,-70.28369 -3.114783,-90.99869 -3,-183 -19.779,46.127 -19.779,46.127 -39.059,92.461 -5.562,13.561 -11.308,27.018 -17.259,40.412 C -90.41,225.832 -97.23,241.902 -104,258 h -12 c -0.648,-10.077 0.61,-17.417 4.793,-26.562 0.497,-1.142 0.995,-2.283 1.507,-3.459 1.331,-3.044 2.684,-6.075 4.047,-9.104 1.42,-3.167 2.809,-6.348 4.201,-9.528 2.177,-4.963 4.368,-9.92 6.573,-14.871 3.242,-7.282 6.413,-14.593 9.567,-21.914 0.985,-2.269 1.97,-4.539 2.957,-6.808 12.411,-28.634 24.623,-57.355 36.855,-86.066 0.493,-1.157 0.985,-2.313 1.493,-3.504 1.409,-3.307 2.818,-6.615 4.226,-9.922 0.41,-0.964 0.821,-1.928 1.244,-2.921 C -32.108,50.999 -32.108,50.999 -31,38 -31.681,36.928 -32.361,35.855 -33.062,34.75 -35.601,30.598 -35.386,26.734 -35,22 -27.647,16.505 -19.857,11.836 -11.958,7.177 -11.119,6.68 -10.279,6.184 -9.414,5.672 -8.661,5.229 -7.907,4.787 -7.131,4.331 -0.196,0 -0.196,0 0,0 Z"
     fill="#ebedef"
     transform="translate(652,410)"
     id="path8"
     sodipodi:nodetypes="ccccccccccccccccsccccccccccccccccccccscccccccccc" />
  <path
     d="M0 0 C56.79 0 56.79 0 70.812 13.25 C81.877 25.047 85.367 38.111 85.211 53.984 C84.663 68.005 79.999 80.274 69.668 89.93 C49.427 105.637 24.696 102 0 102 C0 68.34 0 34.68 0 0 Z "
     fill="#ECEDEE"
     transform="translate(379,787)"
     id="path9" />
  <path
     d="M0 0 C55.408 0 55.408 0 66.773 10.664 C72.774 17.075 74.573 24.24 74.5 32.875 C74.494 33.663 74.489 34.451 74.483 35.263 C74.255 42.716 72.468 48.227 67.355 53.789 C63.617 57.215 59.404 59.53 55 62 C55.559 62.888 56.119 63.776 56.695 64.691 C79 100.197 79 100.197 79 102 C70.75 102 62.5 102 54 102 C49.707 94.383 49.707 94.383 47.668 90.75 C46.312 88.334 44.955 85.92 43.592 83.508 C42.203 81.049 40.82 78.587 39.438 76.125 C38.996 75.347 38.555 74.568 38.1 73.766 C37.695 73.041 37.289 72.317 36.871 71.57 C36.509 70.929 36.148 70.287 35.775 69.625 C35 68 35 68 35 66 C30.71 66 26.42 66 22 66 C22 77.88 22 89.76 22 102 C14.74 102 7.48 102 0 102 C0 68.34 0 34.68 0 0 Z "
     fill="#EAEBEE"
     transform="translate(289,787)"
     id="path10" />
  <path
     d="M0 0 C5 2 5 2 16 9 C16 19.56 16 30.12 16 41 C21.65 42.883 26.986 44.586 32.723 45.993 C33.436 46.169 34.15 46.345 34.884 46.526 C37.205 47.098 39.526 47.664 41.848 48.23 C43.472 48.629 45.095 49.029 46.719 49.428 C50.965 50.472 55.211 51.512 59.458 52.55 C63.803 53.613 68.146 54.681 72.49 55.748 C80.992 57.836 89.496 59.92 98 62 C98.66 62.66 99.32 63.32 100 64 C99.67 67.96 99.34 71.92 99 76 C34.32 76 -30.36 76 -97 76 C-97 71.71 -97 67.42 -97 63 C-88.54 59.968 -79.871 57.896 -71.152 55.77 C-69.528 55.371 -67.905 54.971 -66.281 54.572 C-62.035 53.528 -57.789 52.488 -53.542 51.45 C-48.432 50.199 -43.322 48.943 -38.213 47.688 C-30.476 45.788 -22.738 43.894 -15 42 C-14.67 31.11 -14.34 20.22 -14 9 C-7.07 4.545 -7.07 4.545 0 0 Z "
     fill="#E9EBED"
     transform="translate(398,159)"
     id="path11" />
  <path
     d="M0 0 C2.022 1.578 3.85 3.097 5.562 5 C5.893 2.36 6.222 -0.28 6.562 -3 C10.852 -3 15.143 -3 19.562 -3 C19.656 6.589 19.726 16.177 19.77 25.766 C19.791 30.22 19.819 34.673 19.864 39.127 C19.908 43.432 19.932 47.737 19.942 52.043 C19.949 53.678 19.964 55.312 19.985 56.947 C20.142 69.205 19.383 79.987 10.488 89.281 C0.504 98.192 -10.177 98.916 -23.029 98.247 C-30.981 97.431 -37.86 93.577 -43.438 88 C-45.312 85.688 -45.312 85.688 -46.438 84 C-46.107 83.01 -45.778 82.02 -45.438 81 C-41.808 79.35 -38.178 77.7 -34.438 76 C-33.262 77.114 -32.086 78.227 -30.875 79.375 C-25.574 83.986 -20.638 85.422 -13.57 85.27 C-7.239 84.469 -2.698 82.601 1.316 77.688 C5.629 71.847 4.764 64.908 4.562 58 C3.82 58.763 3.077 59.526 2.312 60.312 C-3.639 66.129 -8.752 68.28 -17.188 68.375 C-25.26 68.247 -32.959 66.379 -39.062 60.727 C-44.785 53.54 -47.574 45.034 -48.438 36 C-48.508 35.264 -48.579 34.528 -48.652 33.77 C-49.13 23.27 -46.331 12.991 -39.438 5 C-28.582 -6.355 -13.499 -7.854 0 0 Z "
     fill="#EAECEE"
     transform="translate(755.4375,820)"
     id="path12"
     style="fill:#d4aa00" />
  <path
     d="M0 0 C8.25 0 16.5 0 25 0 C25.862 2.489 26.725 4.978 27.613 7.543 C28.845 11.092 30.079 14.64 31.312 18.188 C31.637 19.122 31.962 20.057 32.297 21.02 C36.529 33.186 40.821 45.328 45.191 57.445 C45.623 58.644 46.055 59.842 46.5 61.077 C48.631 66.989 50.769 72.897 52.915 78.803 C53.702 80.98 54.488 83.156 55.273 85.332 C55.636 86.324 55.999 87.316 56.373 88.338 C56.872 89.723 56.872 89.723 57.38 91.136 C57.67 91.935 57.961 92.733 58.259 93.556 C59 96 59 96 60 102 C52.41 102 44.82 102 37 102 C36.01 98.927 35.02 95.854 34 92.688 C33.687 91.723 33.374 90.758 33.051 89.764 C32.807 89 32.564 88.236 32.312 87.449 C32.061 86.669 31.81 85.889 31.551 85.085 C31 83 31 83 31 80 C18.79 80 6.58 80 -6 80 C-6.66 82.97 -7.32 85.94 -8 89 C-8.65 91.178 -9.333 93.347 -10.062 95.5 C-10.404 96.521 -10.746 97.542 -11.098 98.594 C-12 101 -12 101 -13 102 C-20.26 102 -27.52 102 -35 102 C-32.992 94.331 -30.668 86.879 -28.008 79.414 C-27.625 78.33 -27.242 77.245 -26.848 76.128 C-25.61 72.626 -24.368 69.125 -23.125 65.625 C-22.271 63.21 -21.417 60.794 -20.563 58.378 C-18.855 53.543 -17.144 48.709 -15.432 43.875 C-12.325 35.098 -9.238 26.313 -6.155 17.527 C-5.088 14.484 -4.019 11.441 -2.95 8.399 C-1.966 5.599 -0.983 2.8 0 0 Z "
     fill="#EBECEF"
     transform="translate(221,787)"
     id="path13" />
  <path
     d="M0 0 C64.68 0 129.36 0 196 0 C196 8.25 196 16.5 196 25 C131.32 25 66.64 25 0 25 C0 16.75 0 8.5 0 0 Z "
     fill="#03315F"
     transform="translate(301,253)"
     id="path14"
     style="fill:#12416d;fill-opacity:1" />
  <path
     d="M0 0 C0.99 0.495 0.99 0.495 2 1 C2.208 1.739 2.415 2.477 2.629 3.238 C7.508 19.305 18.029 31.623 31 42 C31 42.66 31 43.32 31 44 C30.432 44.322 29.864 44.643 29.279 44.975 C19.448 50.547 9.639 56.123 0.051 62.105 C-3.174 64.108 -6.427 66.058 -9.688 68 C-21.202 74.872 -32.589 81.958 -44 89 C-52.272 87.818 -56.546 84.054 -62 78 C-66.859 71.444 -70.704 64.099 -72 56 C-70.014 51.349 -68.32 49.102 -64 46.5 C-58.445 42.986 -53.148 39.237 -47.875 35.312 C-41.613 30.666 -35.331 26.053 -29 21.5 C-22.452 16.786 -15.935 12.033 -9.438 7.25 C-8.609 6.641 -7.781 6.032 -6.928 5.404 C-6.167 4.843 -5.405 4.282 -4.621 3.703 C-3.607 2.955 -3.607 2.955 -2.572 2.192 C-1.045 1.09 -1.045 1.09 0 0 Z "
     fill="#EBECED"
     transform="translate(633,348)"
     id="path15" />
  <path
     d="M0 0 C6.279 5.178 10.381 11.034 11.406 19.234 C5.467 22.006 -1.073 23.234 -7.594 23.234 C-10.069 19.274 -10.069 19.274 -12.594 15.234 C-17.863 11.906 -22.533 11.469 -28.594 12.234 C-32.7 13.77 -32.7 13.77 -35.594 16.797 C-36.914 20.015 -36.726 22.791 -36.594 26.234 C-31.517 34.311 -22.123 36.448 -13.531 39.172 C-3.003 42.544 5.834 47.095 11.438 57.07 C14.622 64.295 14.444 72.11 11.844 79.484 C8.151 87.632 1.584 92.862 -6.594 96.234 C-19.578 100.246 -31.764 100.623 -44.402 94.98 C-54.064 89.584 -59.16 82.643 -62.594 72.234 C-62.264 71.244 -61.934 70.254 -61.594 69.234 C-59.72 68.895 -57.845 68.563 -55.969 68.234 C-54.925 68.049 -53.88 67.863 -52.805 67.672 C-49.688 67.247 -46.734 67.159 -43.594 67.234 C-43.23 67.838 -42.867 68.441 -42.492 69.062 C-38.646 75.177 -35.605 78.897 -28.594 81.234 C-22.489 81.85 -17.99 81.148 -12.594 78.234 C-8.272 74.471 -9.547 74.863 -8.594 67.234 C-13.615 58.865 -23.231 56.254 -32.219 53.297 C-42.052 49.972 -49.99 45.729 -55.473 36.551 C-58.823 29.628 -59.271 22.716 -57.594 15.234 C-54.504 6.857 -49.525 1.262 -41.594 -2.766 C-29.049 -8.501 -11.427 -7.779 0 0 Z "
     fill="#EBECEE"
     transform="translate(571.59375,791.765625)"
     id="path16" />
  <path
     d="M0 0 C6.711 5.517 9.787 10.788 11.477 19.234 C4.052 20.719 4.052 20.719 -3.523 22.234 C-4.225 20.997 -4.926 19.759 -5.648 18.484 C-8.662 13.648 -12.088 11.046 -17.523 9.234 C-24.672 8.53 -30.593 8.932 -36.523 13.234 C-40.832 18.082 -39.523 17.788 -39.523 26.234 C-34.452 34.023 -26.529 35.952 -18.02 38.703 C-17.235 38.958 -16.451 39.212 -15.643 39.475 C-14.106 39.968 -12.564 40.449 -11.019 40.916 C-3.9 43.161 2.473 46.446 7.352 52.234 C7.906 52.874 8.46 53.513 9.031 54.172 C13.753 60.909 13.433 69.332 12.477 77.234 C10.42 84.639 5.894 90.103 -0.523 94.234 C-11.401 99.88 -24.843 100.866 -36.523 97.234 C-46.642 93.347 -53.327 88.299 -57.961 78.422 C-59.114 75.695 -59.523 74.248 -59.523 71.234 C-57.774 70.897 -56.024 70.564 -54.273 70.234 C-53.299 70.049 -52.324 69.863 -51.32 69.672 C-48.523 69.234 -48.523 69.234 -44.523 69.234 C-44.16 69.838 -43.796 70.441 -43.422 71.062 C-39.576 77.177 -36.535 80.897 -29.523 83.234 C-20.608 83.817 -13.149 84.251 -6.148 78.172 C-3.63 75.169 -3.406 73.452 -3.461 69.609 C-3.47 68.792 -3.479 67.975 -3.488 67.133 C-3.539 64.385 -4.961 62.918 -6.68 60.879 C-11.584 56.504 -18.61 54.876 -24.734 52.801 C-47.613 45.034 -47.613 45.034 -53.523 35.234 C-57.175 27.395 -57.327 19.74 -54.648 11.562 C-51.415 4.152 -46.513 -0.253 -39.352 -3.859 C-27.139 -8.407 -10.691 -7.481 0 0 Z "
     fill="#EAECEF"
     transform="translate(653.5234375,791.765625)"
     id="path17"
     style="fill:#d4aa00" />
  <path
     d="M0 0 C25.41 0 50.82 0 77 0 C77 6.27 77 12.54 77 19 C67.76 19 58.52 19 49 19 C49 46.39 49 73.78 49 102 C42.07 102 35.14 102 28 102 C28 74.61 28 47.22 28 19 C18.76 19 9.52 19 0 19 C0 12.73 0 6.46 0 0 Z "
     fill="#ECEEEF"
     transform="translate(119,787)"
     id="path18" />
  <path
     d="M0 0 C16.5 0 33 0 50 0 C50 20.46 50 40.92 50 62 C47.561 63.22 46.089 63.086 43.367 63.022 C41.905 62.991 41.905 62.991 40.414 62.96 C38.875 62.92 38.875 62.92 37.305 62.879 C36.363 62.858 35.422 62.838 34.451 62.816 C30.926 62.737 27.4 62.649 23.875 62.562 C12.057 62.284 12.057 62.284 0 62 C0 41.54 0 21.08 0 0 Z "
     fill="#043261"
     transform="translate(330,484)"
     id="path19"
     style="fill:#12416d;fill-opacity:1" />
  <path
     d="M0 0 C16.17 0 32.34 0 49 0 C50.34 2.681 50.12 4.733 50.114 7.735 C50.113 8.936 50.113 10.137 50.113 11.375 C50.108 12.677 50.103 13.979 50.098 15.32 C50.096 16.663 50.094 18.005 50.093 19.347 C50.09 22.882 50.08 26.416 50.069 29.951 C50.058 33.557 50.054 37.163 50.049 40.77 C50.039 47.846 50.019 54.923 50 62 C33.5 62 17 62 0 62 C0 41.54 0 21.08 0 0 Z "
     fill="#063462"
     transform="translate(330,561)"
     id="path20"
     style="fill:#12416d;fill-opacity:1" />
  <path
     d="M0 0 C16.17 0 32.34 0 49 0 C49 21.12 49 42.24 49 64 C32.83 64 16.66 64 0 64 C0 42.88 0 21.76 0 0 Z "
     fill="#02315F"
     transform="translate(418,483)"
     id="path21"
     style="fill:#12416d;fill-opacity:1" />
  <path
     d="M0 0 C16.17 0 32.34 0 49 0 C49 20.13 49 40.26 49 61 C32.83 61 16.66 61 0 61 C0 40.87 0 20.74 0 0 Z "
     fill="#033160"
     transform="translate(418,561)"
     id="path22"
     style="fill:#12416d;fill-opacity:1" />
  <path
     d="M0 0 C16.17 0 32.34 0 49 0 C49 20.13 49 40.26 49 61 C32.83 61 16.66 61 0 61 C0 40.87 0 20.74 0 0 Z "
     fill="#033260"
     transform="translate(418,407)"
     id="path23"
     style="fill:#12416d;fill-opacity:1" />
  <path
     d="M0 0 C4.62 0 9.24 0 14 0 C14.33 13.2 14.66 26.4 15 40 C16.98 37.525 16.98 37.525 19 35 C21.184 33.453 21.184 33.453 23.438 32.25 C24.179 31.843 24.92 31.435 25.684 31.016 C32.764 27.911 41.092 28.618 48.414 30.68 C54.854 33.489 58.599 38.732 61.312 45.062 C62.973 52.157 63.135 58.924 63.098 66.184 C63.096 67.239 63.095 68.295 63.093 69.382 C63.088 72.734 63.075 76.086 63.062 79.438 C63.057 81.718 63.053 83.999 63.049 86.279 C63.038 91.853 63.021 97.426 63 103 C58.05 103 53.1 103 48 103 C47.985 101.517 47.971 100.034 47.956 98.505 C47.898 92.992 47.821 87.48 47.738 81.967 C47.704 79.583 47.676 77.199 47.654 74.815 C47.62 71.384 47.568 67.954 47.512 64.523 C47.505 63.461 47.499 62.398 47.492 61.303 C47.366 54.905 46.863 50.075 42.312 45.188 C37.241 42.583 32.656 42.558 27.312 44.125 C22.615 45.936 19.286 48.13 17.154 52.888 C15.088 58.769 14.533 64.078 14.488 70.285 C14.47 71.227 14.452 72.169 14.434 73.139 C14.38 76.113 14.346 79.088 14.312 82.062 C14.279 84.093 14.245 86.124 14.209 88.154 C14.124 93.103 14.057 98.051 14 103 C9.38 103 4.76 103 0 103 C0 69.01 0 35.02 0 0 Z "
     fill="#EAEBEE"
     transform="translate(791,786)"
     id="path24"
     style="fill:#d4aa00" />
  <path
     d="M0 0 C25.622 0 25.622 0 34 8 C35.766 10.875 35.766 10.875 37.25 14 C37.75 15.031 38.25 16.062 38.766 17.125 C42.779 26.472 42.38 39.472 38.91 48.992 C36.342 54.657 33.059 58.4 28 62 C20 65 20 65 0 65 C0 43.55 0 22.1 0 0 Z "
     fill="#043261"
     transform="translate(400,805)"
     id="path25"
     style="fill:#12416d;fill-opacity:1" />
  <path
     d="M0 0 C7.26 0 14.52 0 22 0 C22 33.66 22 67.32 22 102 C14.74 102 7.48 102 0 102 C0 68.34 0 34.68 0 0 Z "
     fill="#EAECED"
     transform="translate(476,787)"
     id="path26" />
  <path
     d="M0 0 C12.87 0 25.74 0 39 0 C39 15.84 39 31.68 39 48 C26.46 48 13.92 48 1 48 C0.67 47.67 0.34 47.34 0 47 C0 31.49 0 15.98 0 0 Z "
     fill="#EAEBED"
     transform="translate(335,414)"
     id="path27" />
  <path
     d="M0 0 C4.62 0 9.24 0 14 0 C14 5.94 14 11.88 14 18 C20.27 18 26.54 18 33 18 C33 21.96 33 25.92 33 30 C26.73 30 20.46 30 14 30 C14.074 36.033 14.157 42.065 14.262 48.097 C14.296 50.148 14.324 52.2 14.346 54.251 C14.38 57.203 14.432 60.154 14.488 63.105 C14.495 64.02 14.501 64.935 14.508 65.877 C14.62 70.741 14.89 74.014 18 78 C22.655 78.838 26.371 79.016 31 78 C31 81.96 31 85.92 31 90 C22.701 92.71 16.045 92.523 8 89 C3.688 86.282 1.838 83.735 0 79 C-0.403 75.228 -0.349 71.485 -0.293 67.695 C-0.289 66.616 -0.284 65.537 -0.28 64.425 C-0.263 60.992 -0.226 57.559 -0.188 54.125 C-0.172 51.792 -0.159 49.458 -0.146 47.125 C-0.113 41.416 -0.062 35.708 0 30 C-4.29 30 -8.58 30 -13 30 C-13 26.04 -13 22.08 -13 18 C-8.71 18 -4.42 18 0 18 C0 12.06 0 6.12 0 0 Z "
     fill="#ECEEF0"
     transform="translate(875,799)"
     id="path28"
     style="fill:#d4aa00" />
  <path
     d="M0 0 C5.638 3.274 7.85 8.289 9.562 14.375 C10.312 23.227 10.708 32.726 5.238 40.18 C0.782 45.069 -3.788 46.431 -10.312 46.75 C-15.582 46.67 -18.943 45.038 -23.438 42.375 C-24.254 41.107 -25.065 39.835 -25.875 38.562 C-26.327 37.855 -26.78 37.147 -27.246 36.418 C-31.026 29.937 -30.198 20.675 -29.438 13.375 C-27.984 8.132 -25.795 4.007 -21.312 0.812 C-14.639 -2.524 -6.912 -3.131 0 0 Z "
     fill="#04325F"
     transform="translate(751.4375,829.625)"
     id="path29"
     style="fill:#12416d;fill-opacity:1" />
  <path
     d="M0 0 C16.17 0 32.34 0 49 0 C50.33 2.659 50.12 4.666 50.114 7.643 C50.113 8.824 50.113 10.005 50.113 11.222 C50.108 12.502 50.103 13.783 50.098 15.102 C50.096 16.408 50.095 17.715 50.093 19.061 C50.09 22.537 50.08 26.012 50.069 29.487 C50.058 33.033 50.054 36.579 50.049 40.125 C50.039 47.083 50.019 54.042 50 61 C33.5 61 17 61 0 61 C0 40.87 0 20.74 0 0 Z M5 7 C5 22.51 5 38.02 5 54 C5.33 54.33 5.66 54.66 6 55 C18.54 55 31.08 55 44 55 C44 39.16 44 23.32 44 7 C31.13 7 18.26 7 5 7 Z "
     fill="#0F2F58"
     transform="translate(330,407)"
     id="path30"
     style="fill:#12416d;fill-opacity:1" />
  <path
     d="M0 0 C4.95 0 9.9 0 15 0 C15 23.76 15 47.52 15 72 C10.05 72 5.1 72 0 72 C0 48.24 0 24.48 0 0 Z "
     fill="#E9EBEE"
     transform="translate(680,817)"
     id="path31"
     style="fill:#d4aa00" />
  <path
     d="M0 0 C0.424 0.918 0.848 1.836 1.285 2.781 C4.733 10.057 8.172 16.296 14 22 C10.367 26.15 5.938 28.653 1.25 31.438 C-0.308 32.373 -1.865 33.31 -3.422 34.246 C-4.558 34.926 -4.558 34.926 -5.717 35.621 C-9.17 37.707 -12.587 39.849 -16 42 C-21.929 41.012 -23.484 40.313 -27 36 C-29.518 31.551 -31.674 27.224 -31 22 C-26.798 17.477 -22.088 14.003 -17.062 10.438 C-16.277 9.874 -15.491 9.31 -14.682 8.729 C-2.482 0 -2.482 0 0 0 Z "
     fill="#EAEBEE"
     transform="translate(557,416)"
     id="path32" />
  <path
     d="M0 0 C3.341 -0.062 6.683 -0.124 10.125 -0.188 C11.688 -0.228 11.688 -0.228 13.282 -0.27 C18.637 -0.318 22.348 0.016 27 3 C29.777 6.928 30.345 9.531 30.188 14.312 C30.16 15.381 30.133 16.45 30.105 17.551 C30 20 30 20 25 26 C16.48 29.652 9.166 29.231 0 29 C0 19.43 0 9.86 0 0 Z "
     fill="#04305C"
     transform="translate(311,806)"
     id="path33"
     style="fill:#12416d;fill-opacity:1" />
  <path
     d="M0 0 C10.429 1.738 16.87 11.672 22.874 19.959 C29.519 29.382 35.654 39.302 40 50 C39.67 51.65 39.34 53.3 39 55 C29.139 53.604 21.894 44.407 16 37 C-1.39 13.673 -1.39 13.673 0 0 Z "
     fill="#09305B"
     transform="translate(728,271)"
     id="path34"
     style="fill:#12416d;fill-opacity:1" />
  <path
     d="M0 0 C6.93 0 13.86 0 21 0 C21 10.89 21 21.78 21 33 C20.67 33.33 20.34 33.66 20 34 C13.4 34 6.8 34 0 34 C0 22.78 0 11.56 0 0 Z "
     fill="#09335F"
     transform="translate(418,358)"
     id="path35"
     style="fill:#12416d;fill-opacity:1" />
  <path
     d="M0 0 C6.6 0 13.2 0 20 0 C21.479 2.958 21.122 5.955 21.098 9.195 C21.096 9.903 21.095 10.61 21.093 11.339 C21.088 13.601 21.075 15.863 21.062 18.125 C21.057 19.658 21.053 21.19 21.049 22.723 C21.039 26.482 21.019 30.241 21 34 C14.07 34 7.14 34 0 34 C0 22.78 0 11.56 0 0 Z "
     fill="#0A3560"
     transform="translate(359,357)"
     id="path36"
     style="fill:#12416d;fill-opacity:1" />
  <path
     d="M0 0 C6.6 0 13.2 0 20 0 C21.479 2.958 21.122 5.955 21.098 9.195 C21.096 9.903 21.095 10.61 21.093 11.339 C21.088 13.601 21.075 15.863 21.062 18.125 C21.057 19.658 21.053 21.19 21.049 22.723 C21.039 26.482 21.019 30.241 21 34 C14.07 34 7.14 34 0 34 C0 22.78 0 11.56 0 0 Z "
     fill="#09335E"
     transform="translate(330,357)"
     id="path37"
     style="fill:#12416d;fill-opacity:1" />
  <path
     d="M0 0 C6.93 0 13.86 0 21 0 C21 10.89 21 21.78 21 33 C14.07 33 7.14 33 0 33 C0 22.11 0 11.22 0 0 Z "
     fill="#07315E"
     transform="translate(418,316)"
     id="path38"
     style="fill:#12416d;fill-opacity:1" />
  <path
     d="M0 0 C6.93 0 13.86 0 21 0 C21 10.89 21 21.78 21 33 C14.07 33 7.14 33 0 33 C0 22.11 0 11.22 0 0 Z "
     fill="#08325D"
     transform="translate(330,316)"
     id="path39"
     style="fill:#12416d;fill-opacity:1" />
  <path
     d="M0 0 C6.93 0 13.86 0 21 0 C21.023 4.378 21.043 8.756 21.055 13.135 C21.06 14.625 21.067 16.115 21.075 17.604 C21.088 19.744 21.093 21.884 21.098 24.023 C21.106 25.956 21.106 25.956 21.114 27.927 C21 31 21 31 20 33 C13.4 33 6.8 33 0 33 C0 22.11 0 11.22 0 0 Z "
     fill="#08335F"
     transform="translate(359,316)"
     id="path40"
     style="fill:#12416d;fill-opacity:1" />
  <path
     d="M0 0 C6.6 0 13.2 0 20 0 C20 11.22 20 22.44 20 34 C13.4 34 6.8 34 0 34 C0 22.78 0 11.56 0 0 Z "
     fill="#032F5A"
     transform="translate(447,358)"
     id="path41"
     style="fill:#12416d;fill-opacity:1" />
  <path
     d="M0 0 C6.6 0 13.2 0 20 0 C20 10.89 20 21.78 20 33 C13.4 33 6.8 33 0 33 C0 22.11 0 11.22 0 0 Z "
     fill="#032F5A"
     transform="translate(447,316)"
     id="path42"
     style="fill:#12416d;fill-opacity:1" />
  <path
     d="M0 0 C2.181 3.271 3.35 6.537 4.602 10.223 C4.843 10.924 5.084 11.625 5.333 12.348 C5.841 13.827 6.347 15.307 6.851 16.788 C7.624 19.059 8.405 21.328 9.188 23.596 C9.68 25.034 10.172 26.472 10.664 27.91 C11.016 28.93 11.016 28.93 11.374 29.971 C13 34.769 13 34.769 13 37 C4.75 37 -3.5 37 -12 37 C-8.622 24.615 -8.622 24.615 -6.992 19.746 C-6.472 18.189 -6.472 18.189 -5.941 16.6 C-5.589 15.556 -5.238 14.513 -4.875 13.438 C-4.515 12.359 -4.156 11.281 -3.785 10.17 C-1.141 2.282 -1.141 2.282 0 0 Z "
     fill="#0C325C"
     transform="translate(233,813)"
     id="path43"
     style="fill:#12416d;fill-opacity:1" />
  <path
     d="M0 0 C4.368 5.46 4.313 5.627 4 12 C1.6 16.7 1.6 16.7 -1 18 C-3.672 18.134 -6.323 18.043 -9 18 C-13.887 13.271 -13.887 13.271 -14.25 9.188 C-13.972 5.645 -13.026 3.87 -11 1 C-6 -1 -6 -1 0 0 Z "
     fill="#E8EBEE"
     transform="translate(693,785)"
     id="path44"
     style="fill:#d4aa00" />
  <path
     d="M0 0 C2.64 0 5.28 0 8 0 C8 6.6 8 13.2 8 20 C5.36 20 2.72 20 0 20 C0 13.4 0 6.8 0 0 Z "
     fill="#06284C"
     transform="translate(395,178)"
     id="path45"
     style="fill:#12416d;fill-opacity:1" />
  <rect
     style="fill:none;fill-opacity:1;stroke:#ffffff;stroke-width:15.837;stroke-linecap:round;stroke-linejoin:bevel;stroke-dasharray:none;stroke-opacity:1"
     id="rect46"
     width="638.38452"
     height="606.64862"
     x="194.58879"
     y="130.40521" />
</svg>
